<?xml version="1.0" standalone="no"?>
<!DOCTYPE svg PUBLIC "-//W3C//DTD SVG 20010904//EN"
 "http://www.w3.org/TR/2001/REC-SVG-20010904/DTD/svg10.dtd">
<svg version="1.0" xmlns="http://www.w3.org/2000/svg"
 width="512.000000pt" height="512.000000pt" viewBox="0 0 512.000000 512.000000"
 preserveAspectRatio="xMidYMid meet">

<g transform="translate(0.000000,512.000000) scale(0.100000,-0.100000)"
fill="#000000" stroke="none">
<path d="M2330 5109 c-476 -45 -930 -221 -1319 -512 -124 -92 -396 -364 -488
-488 -696 -931 -696 -2167 0 -3098 92 -124 364 -396 488 -488 931 -696 2167
-696 3098 0 124 92 396 364 488 488 696 931 696 2167 0 3098 -92 124 -364 396
-488 488 -517 386 -1159 571 -1779 512z m866 -550 c268 -30 444 -120 515 -264
27 -56 31 -74 31 -148 0 -149 -11 -180 -287 -757 -59 -124 -141 -299 -181
-390 l-74 -165 48 -7 c26 -4 112 -16 190 -26 175 -24 186 -31 155 -96 -31 -63
-82 -116 -132 -139 -40 -17 -62 -19 -214 -16 l-169 4 -70 -170 c-340 -829
-439 -1174 -438 -1522 1 -92 6 -151 15 -178 8 -21 13 -40 12 -41 -1 0 -47 -13
-102 -27 -290 -77 -345 -86 -398 -63 -51 21 -60 50 -52 166 15 220 64 437 164
730 77 227 157 414 345 800 l153 315 -76 3 c-203 9 -602 -54 -901 -142 -63
-19 -86 -22 -92 -13 -15 24 -8 146 11 197 30 80 92 169 121 174 97 20 576 55
858 63 l224 6 142 286 c169 338 303 626 346 742 86 234 29 357 -193 416 -76
21 -373 22 -537 4 -376 -44 -658 -150 -720 -272 -26 -51 -26 -133 -1 -175 40
-66 118 -103 217 -104 22 0 82 7 133 16 51 9 94 14 96 12 3 -2 -53 -80 -123
-173 -142 -189 -164 -207 -269 -213 -77 -5 -214 32 -317 86 -85 44 -188 142
-217 206 -63 144 -16 326 124 473 87 91 156 140 291 203 174 82 365 137 599
170 254 37 593 49 773 29z"/>
</g>
</svg>
